<?xml version="1.0" encoding="iso-8859-1"?>
<!-- Generator: Adobe Illustrator 19.0.0, SVG Export Plug-In . SVG Version: 6.00 Build 0)  -->
<svg version="1.1" id="Layer_1" xmlns="http://www.w3.org/2000/svg" xmlns:xlink="http://www.w3.org/1999/xlink" x="0px" y="0px"
	 viewBox="0 0 512 512" style="enable-background:new 0 0 512 512;" xml:space="preserve">
<path style="fill:#FF4719;" d="M466.989,244.747l-13.053,109.152l38.574,0.068l0.056,0.022C505.091,323.809,512,290.715,512,256
	L466.989,244.747z"/>
<g>
	<path style="fill:#FF754F;" d="M444.484,256l16.879-22.505L478.242,256c0,30.416-4.602,59.583-13.053,86.646l-28.301,11.365
		l-6.752-25.881C439.386,305.906,444.484,281.533,444.484,256z"/>
	<path style="fill:#FF754F;" d="M437.023,74.988c-0.011,0-35.694,1.924-35.694,1.924L478.242,256H512
		C512,185.31,483.351,121.305,437.023,74.988z"/>
</g>
<path style="fill:#FF9269;" d="M478.242,256h-33.758c0-51.965-21.133-99.092-55.273-133.21l0.068-0.068l-4.621-40.389l39.179,5.832
	C457.728,133.098,478.242,191.792,478.242,256z"/>
<path style="fill:#A0F6FA;" d="M215.771,156.008l-54.565-7.607C131.376,174.71,112.527,213.195,112.527,256
	s18.848,81.29,48.679,107.599l54.565-7.607L241.934,256L215.771,156.008z"/>
<path style="fill:#25BBCC;" d="M350.804,148.39l-13.897-0.428v216.075c0,0,13.897-0.428,13.886-0.439
	c29.842-26.309,48.679-64.793,48.679-107.599S380.635,174.71,350.804,148.39z"/>
<path style="fill:#50D1DD;" d="M336.907,159.215l-40.667-3.207L270.066,256l26.174,99.992l40.667-3.207
	c17.881-25.533,28.807-59.527,28.807-96.785S354.788,184.748,336.907,159.215z"/>
<path style="fill:#78E3EC;" d="M296.24,178.514h-80.468c-4.805,22.359-7.596,48.961-7.596,77.486s2.791,55.127,7.596,77.486h80.468
	c4.805-22.359,7.584-48.961,7.584-77.486S301.045,200.873,296.24,178.514z"/>
<path style="fill:#F0FEFF;" d="M161.207,148.401c15.563,13.728,34.13,24.148,54.565,30.112L256,112.527
	C219.699,112.527,186.503,126.087,161.207,148.401z"/>
<path style="fill:#78E3EC;" d="M257.418,112.539l79.489,46.676c4.85-3.32,9.486-6.932,13.886-10.814
	C325.835,126.368,293.168,112.876,257.418,112.539z"/>
<path style="fill:#A0F6FA;" d="M257.418,112.539c-0.473-0.011-0.945-0.011-1.418-0.011l40.24,65.986
	c14.662-4.287,28.357-10.848,40.667-19.298C317.136,130.959,288.847,113.056,257.418,112.539z"/>
<path style="fill:#F0FEFF;" d="M215.771,333.486c-20.435,5.964-39.002,16.384-54.565,30.112
	c25.296,22.314,58.492,35.874,94.793,35.874L215.771,333.486z"/>
<path style="fill:#78E3EC;" d="M350.793,363.599c-4.4-3.882-9.036-7.494-13.886-10.814l-79.489,46.676
	C293.168,399.124,325.835,385.632,350.793,363.599z"/>
<path style="fill:#A0F6FA;" d="M296.24,333.486L256,399.473c0.473,0,0.945,0,1.418-0.011c31.429-0.518,59.718-18.421,79.489-46.676
	C324.597,344.334,310.902,337.774,296.24,333.486z"/>
<g>
	<path style="fill:#D0FBFD;" d="M256,112.527c16.868,0,31.721,26.32,40.24,65.986c-12.772,3.747-26.275,5.75-40.24,5.75
		c-13.965,0-27.468-2.003-40.229-5.75C224.29,138.848,239.143,112.527,256,112.527z"/>
	<path style="fill:#D0FBFD;" d="M296.24,333.486c-8.518,39.666-23.372,65.986-40.24,65.986c-16.857,0-31.71-26.32-40.229-65.986
		c12.761-3.747,26.264-5.75,40.229-5.75C269.965,327.736,283.468,329.739,296.24,333.486z"/>
</g>
<path style="fill:#FFCD60;" d="M258.869,0.023l164.965,88.143l13.177-13.177C391.314,29.268,328.411,0.776,258.869,0.023z"/>
<path style="fill:#FFEAB5;" d="M389.278,122.722l-0.068,0.068C355.092,88.649,307.965,67.516,256,67.516
	s-99.092,21.133-133.21,55.273l-0.068-0.068l-45.642-0.636L75,74.988C121.316,28.649,185.322,0,256,0
	c0.957,0,1.913,0.011,2.869,0.023c65.851,0.956,124.782,34.906,164.965,88.143L389.278,122.722z"/>
<path style="fill:#FFCD60;" d="M122.722,122.722l0.068,0.068C88.649,156.908,67.516,204.035,67.516,256l-33.758,33.758L0,256
	c0-70.69,28.649-134.695,74.988-181.012C75,74.988,122.722,122.722,122.722,122.722z"/>
<path style="fill:#FF9269;" d="M256,444.484l33.758,33.758L256,512C114.62,512,0,397.38,0,256h67.516
	C67.516,359.93,152.07,444.484,256,444.484z"/>
<path style="fill:#E02E00;" d="M492.51,353.966l-27.322-11.32L258.869,511.978c105.449-1.148,195.584-66.054,233.697-157.989
	L492.51,353.966z"/>
<path style="fill:#FF4719;" d="M256,512v-67.516c78.398,0,145.768-48.105,174.136-116.353l35.052,14.516
	c-30.517,97.764-111.222,167.947-206.319,169.331C257.913,511.989,256.957,512,256,512z"/>
<path style="fill:#2F5E88;" d="M256.002,104.088c-83.764,0-151.912,68.148-151.912,151.912s68.148,151.912,151.912,151.912
	S407.914,339.764,407.914,256S339.767,104.088,256.002,104.088z M390.764,247.56h-78.586c-0.426-22.454-2.554-43.996-6.191-63.336
	c16.012-5.593,31.072-13.869,44.517-24.576C373.62,182.324,388.635,213.224,390.764,247.56z M302.352,344.407
	c12.529,4.591,24.375,11.041,35.128,19.199c-15.242,11.569-33.005,19.977-52.308,24.244c4.678-7.33,8.916-16.609,12.639-27.779
	C299.459,355.123,300.97,349.881,302.352,344.407z M281.797,354.734c-8.921,26.764-19.175,36.299-25.795,36.299
	s-16.873-9.536-25.795-36.299c-1.589-4.768-3.045-9.833-4.369-15.138c9.825-2.257,19.938-3.42,30.164-3.42
	c10.227,0,20.34,1.162,30.164,3.42C284.842,344.902,283.386,349.966,281.797,354.734z M214.195,360.072
	c3.724,11.169,7.961,20.448,12.639,27.779c-19.303-4.267-37.067-12.675-52.308-24.244c10.753-8.158,22.599-14.608,35.128-19.199
	C211.034,349.881,212.545,355.123,214.195,360.072z M256.002,319.297c-11.425,0-22.723,1.292-33.701,3.794
	c-3.267-17.896-5.183-37.826-5.591-58.652h78.586c-0.408,20.825-2.325,40.756-5.591,58.652
	C278.725,320.589,267.427,319.297,256.002,319.297z M216.71,247.56c0.408-20.825,2.325-40.756,5.591-58.652
	c10.979,2.503,22.277,3.794,33.701,3.794c11.425,0,22.723-1.292,33.702-3.794c3.267,17.896,5.183,37.826,5.591,58.652H216.71z
	 M209.652,167.593c-12.529-4.591-24.375-11.041-35.128-19.199c15.242-11.569,33.005-19.977,52.308-24.244
	c-4.678,7.33-8.916,16.609-12.639,27.779C212.545,156.877,211.034,162.119,209.652,167.593z M230.208,157.266
	c8.921-26.764,19.175-36.299,25.795-36.299s16.874,9.536,25.795,36.299c1.589,4.768,3.045,9.833,4.369,15.138
	c-9.825,2.256-19.938,3.42-30.164,3.42c-10.226,0-20.34-1.162-30.164-3.42C227.163,167.098,228.619,162.034,230.208,157.266z
	 M297.81,151.928c-3.724-11.169-7.961-20.448-12.639-27.779c19.303,4.267,37.067,12.674,52.308,24.244
	c-10.753,8.158-22.599,14.608-35.128,19.199C300.97,162.119,299.459,156.877,297.81,151.928z M161.501,159.647
	c13.445,10.707,28.505,18.983,44.517,24.576c-3.637,19.34-5.766,40.883-6.191,63.337H121.24
	C123.369,213.224,138.384,182.324,161.501,159.647z M121.24,264.44h78.586c0.426,22.454,2.554,43.996,6.191,63.337
	c-16.012,5.593-31.072,13.869-44.517,24.576C138.384,329.676,123.369,298.776,121.24,264.44z M350.503,352.353
	c-13.445-10.707-28.505-18.983-44.517-24.576c3.637-19.34,5.766-40.883,6.191-63.336h78.586
	C388.635,298.776,373.62,329.676,350.503,352.353z"/>
<g>
</g>
<g>
</g>
<g>
</g>
<g>
</g>
<g>
</g>
<g>
</g>
<g>
</g>
<g>
</g>
<g>
</g>
<g>
</g>
<g>
</g>
<g>
</g>
<g>
</g>
<g>
</g>
<g>
</g>
</svg>
