<svg width="278" height="75" viewBox="0 0 278 75" fill="none" xmlns="http://www.w3.org/2000/svg">
<g opacity="0.84" filter="url(#filter0_d_104_3)">
<path d="M27.6798 62H14.274L14.3571 50.7939H27.6798C30.4467 50.7939 32.7848 50.1299 34.694 48.8018C36.6308 47.4736 38.0973 45.4953 39.0934 42.8667C40.1171 40.2104 40.629 36.9455 40.629 33.0718V30.457C40.629 27.5518 40.3385 25.0062 39.7574 22.8203C39.2041 20.6068 38.374 18.7668 37.2672 17.3003C36.1604 15.8062 34.777 14.6855 33.1168 13.9385C31.4843 13.1914 29.6028 12.8179 27.4723 12.8179H14.025V1.57031H27.4723C31.5673 1.57031 35.3165 2.27588 38.7198 3.68701C42.1508 5.07048 45.1115 7.06266 47.6017 9.66357C50.1196 12.2368 52.0564 15.2943 53.4122 18.8359C54.7957 22.3499 55.4874 26.2513 55.4874 30.54V33.0718C55.4874 37.3328 54.7957 41.2342 53.4122 44.7759C52.0564 48.3175 50.1334 51.375 47.6432 53.9482C45.153 56.5215 42.2062 58.5137 38.8029 59.9248C35.4272 61.3083 31.7195 62 27.6798 62ZM22.6163 1.57031V62H8.04846V1.57031H22.6163ZM94.2106 45.938C94.2106 44.9972 94.0722 44.1533 93.7955 43.4062C93.5188 42.6315 93.007 41.9121 92.2599 41.248C91.5128 40.584 90.4337 39.9199 89.0226 39.2559C87.6391 38.5641 85.8129 37.8447 83.5441 37.0977C80.8878 36.2122 78.3284 35.2161 75.8658 34.1094C73.4033 32.9749 71.2036 31.6606 69.2667 30.1665C67.3299 28.6447 65.7942 26.8739 64.6598 24.854C63.5253 22.8065 62.9581 20.4269 62.9581 17.7153C62.9581 15.1144 63.5392 12.7764 64.7013 10.7012C65.8634 8.59831 67.4821 6.81364 69.5573 5.34717C71.6601 3.85303 74.1227 2.71859 76.9449 1.94385C79.7672 1.14144 82.8523 0.740234 86.2003 0.740234C90.6274 0.740234 94.5288 1.51497 97.9044 3.06445C101.308 4.58626 103.964 6.7583 105.873 9.58057C107.81 12.3752 108.778 15.6816 108.778 19.5H94.2936C94.2936 17.9782 93.9754 16.6362 93.339 15.4741C92.7303 14.312 91.8033 13.3989 90.5582 12.7349C89.3131 12.0708 87.7498 11.7388 85.8683 11.7388C84.0421 11.7388 82.5065 12.0155 81.2614 12.5688C80.0162 13.1222 79.0755 13.8693 78.4391 14.8101C77.8027 15.7231 77.4845 16.7331 77.4845 17.8398C77.4845 18.7529 77.7335 19.583 78.2316 20.3301C78.7573 21.0495 79.4905 21.7274 80.4313 22.3638C81.3997 23.0002 82.5618 23.6089 83.9176 24.1899C85.3011 24.771 86.8505 25.3382 88.566 25.8916C91.7757 26.9154 94.6256 28.0636 97.1158 29.3364C99.6337 30.5815 101.75 32.0065 103.466 33.6113C105.209 35.1885 106.523 36.987 107.409 39.0068C108.322 41.0267 108.778 43.3094 108.778 45.855C108.778 48.5666 108.253 50.9738 107.201 53.0767C106.15 55.1795 104.642 56.9642 102.677 58.4307C100.713 59.8695 98.361 60.9624 95.6217 61.7095C92.8824 62.4565 89.825 62.8301 86.4493 62.8301C83.3504 62.8301 80.2929 62.4427 77.277 61.668C74.2887 60.8656 71.5771 59.6481 69.1422 58.0156C66.7073 56.3555 64.7566 54.2388 63.2902 51.6655C61.8514 49.0646 61.132 45.9795 61.132 42.4102H75.7413C75.7413 44.181 75.9765 45.6751 76.4469 46.8926C76.9173 48.11 77.609 49.0923 78.5221 49.8394C79.4352 50.5588 80.5558 51.0845 81.8839 51.4165C83.212 51.7209 84.7338 51.873 86.4493 51.873C88.3032 51.873 89.7973 51.6102 90.9318 51.0845C92.0662 50.5311 92.8963 49.8117 93.422 48.9263C93.9477 48.0132 94.2106 47.0171 94.2106 45.938ZM140.404 41.4971H125.38V30.2495H140.404C142.452 30.2495 144.112 29.9036 145.385 29.2119C146.658 28.5202 147.585 27.5656 148.166 26.3481C148.774 25.103 149.079 23.7057 149.079 22.1562C149.079 20.4961 148.774 18.9604 148.166 17.5493C147.585 16.1382 146.658 15.0037 145.385 14.146C144.112 13.2606 142.452 12.8179 140.404 12.8179H130.859V62H116.291V1.57031H140.404C145.247 1.57031 149.411 2.45573 152.897 4.22656C156.411 5.9974 159.109 8.43229 160.99 11.5312C162.872 14.6025 163.813 18.1165 163.813 22.0732C163.813 25.9746 162.872 29.3779 160.99 32.2832C159.109 35.1885 156.411 37.4574 152.897 39.0898C149.411 40.6947 145.247 41.4971 140.404 41.4971ZM182.614 1.57031L193.737 27.8008L204.901 1.57031H220.59L201.166 40.2935V62H186.349V40.2935L166.884 1.57031H182.614ZM255.038 1.57031V62H240.47V1.57031H255.038ZM273.217 1.57031V12.8179H222.707V1.57031H273.217Z" fill="#F4BF00"/>
</g>
<defs>
<filter id="filter0_d_104_3" x="0.0484619" y="0.740234" width="277.168" height="74.0898" filterUnits="userSpaceOnUse" color-interpolation-filters="sRGB">
<feFlood flood-opacity="0" result="BackgroundImageFix"/>
<feColorMatrix in="SourceAlpha" type="matrix" values="0 0 0 0 0 0 0 0 0 0 0 0 0 0 0 0 0 0 127 0" result="hardAlpha"/>
<feOffset dx="-2" dy="6"/>
<feGaussianBlur stdDeviation="3"/>
<feComposite in2="hardAlpha" operator="out"/>
<feColorMatrix type="matrix" values="0 0 0 0 0.389613 0 0 0 0 0.155313 0 0 0 0 0.8875 0 0 0 0.79 0"/>
<feBlend mode="normal" in2="BackgroundImageFix" result="effect1_dropShadow_104_3"/>
<feBlend mode="normal" in="SourceGraphic" in2="effect1_dropShadow_104_3" result="shape"/>
</filter>
</defs>
</svg>
