<svg width="312" height="83" viewBox="0 0 312 83" fill="none" xmlns="http://www.w3.org/2000/svg">
<g filter="url(#filter0_d_2_4)">
<path d="M30.6406 70H15.5L15.5938 57.3438H30.6406C33.7656 57.3438 36.4062 56.5938 38.5625 55.0938C40.75 53.5938 42.4062 51.3594 43.5312 48.3906C44.6875 45.3906 45.2656 41.7031 45.2656 37.3281V34.375C45.2656 31.0938 44.9375 28.2188 44.2812 25.75C43.6562 23.25 42.7188 21.1719 41.4688 19.5156C40.2188 17.8281 38.6562 16.5625 36.7812 15.7188C34.9375 14.875 32.8125 14.4531 30.4062 14.4531H15.2188V1.75H30.4062C35.0312 1.75 39.2656 2.54688 43.1094 4.14062C46.9844 5.70312 50.3281 7.95312 53.1406 10.8906C55.9844 13.7969 58.1719 17.25 59.7031 21.25C61.2656 25.2188 62.0469 29.625 62.0469 34.4688V37.3281C62.0469 42.1406 61.2656 46.5469 59.7031 50.5469C58.1719 54.5469 56 58 53.1875 60.9062C50.375 63.8125 47.0469 66.0625 43.2031 67.6562C39.3906 69.2188 35.2031 70 30.6406 70ZM24.9219 1.75V70H8.46875V1.75H24.9219ZM105.781 51.8594C105.781 50.7969 105.625 49.8438 105.312 49C105 48.125 104.422 47.3125 103.578 46.5625C102.734 45.8125 101.516 45.0625 99.9219 44.3125C98.3594 43.5312 96.2969 42.7188 93.7344 41.875C90.7344 40.875 87.8438 39.75 85.0625 38.5C82.2812 37.2188 79.7969 35.7344 77.6094 34.0469C75.4219 32.3281 73.6875 30.3281 72.4062 28.0469C71.125 25.7344 70.4844 23.0469 70.4844 19.9844C70.4844 17.0469 71.1406 14.4062 72.4531 12.0625C73.7656 9.6875 75.5938 7.67187 77.9375 6.01562C80.3125 4.32812 83.0938 3.04688 86.2812 2.17188C89.4688 1.26563 92.9531 0.8125 96.7344 0.8125C101.734 0.8125 106.141 1.6875 109.953 3.4375C113.797 5.15625 116.797 7.60938 118.953 10.7969C121.141 13.9531 122.234 17.6875 122.234 22H105.875C105.875 20.2812 105.516 18.7656 104.797 17.4531C104.109 16.1406 103.062 15.1094 101.656 14.3594C100.25 13.6094 98.4844 13.2344 96.3594 13.2344C94.2969 13.2344 92.5625 13.5469 91.1562 14.1719C89.75 14.7969 88.6875 15.6406 87.9688 16.7031C87.25 17.7344 86.8906 18.875 86.8906 20.125C86.8906 21.1562 87.1719 22.0938 87.7344 22.9375C88.3281 23.75 89.1562 24.5156 90.2188 25.2344C91.3125 25.9531 92.625 26.6406 94.1562 27.2969C95.7188 27.9531 97.4688 28.5938 99.4062 29.2188C103.031 30.375 106.25 31.6719 109.062 33.1094C111.906 34.5156 114.297 36.125 116.234 37.9375C118.203 39.7188 119.688 41.75 120.688 44.0312C121.719 46.3125 122.234 48.8906 122.234 51.7656C122.234 54.8281 121.641 57.5469 120.453 59.9219C119.266 62.2969 117.562 64.3125 115.344 65.9688C113.125 67.5938 110.469 68.8281 107.375 69.6719C104.281 70.5156 100.828 70.9375 97.0156 70.9375C93.5156 70.9375 90.0625 70.5 86.6562 69.625C83.2812 68.7188 80.2188 67.3438 77.4688 65.5C74.7188 63.625 72.5156 61.2344 70.8594 58.3281C69.2344 55.3906 68.4219 51.9062 68.4219 47.875H84.9219C84.9219 49.875 85.1875 51.5625 85.7188 52.9375C86.25 54.3125 87.0312 55.4219 88.0625 56.2656C89.0938 57.0781 90.3594 57.6719 91.8594 58.0469C93.3594 58.3906 95.0781 58.5625 97.0156 58.5625C99.1094 58.5625 100.797 58.2656 102.078 57.6719C103.359 57.0469 104.297 56.2344 104.891 55.2344C105.484 54.2031 105.781 53.0781 105.781 51.8594ZM157.953 46.8438H140.984V34.1406H157.953C160.266 34.1406 162.141 33.75 163.578 32.9688C165.016 32.1875 166.062 31.1094 166.719 29.7344C167.406 28.3281 167.75 26.75 167.75 25C167.75 23.125 167.406 21.3906 166.719 19.7969C166.062 18.2031 165.016 16.9219 163.578 15.9531C162.141 14.9531 160.266 14.4531 157.953 14.4531H147.172V70H130.719V1.75H157.953C163.422 1.75 168.125 2.75 172.062 4.75C176.031 6.75 179.078 9.5 181.203 13C183.328 16.4688 184.391 20.4375 184.391 24.9062C184.391 29.3125 183.328 33.1562 181.203 36.4375C179.078 39.7188 176.031 42.2812 172.062 44.125C168.125 45.9375 163.422 46.8438 157.953 46.8438ZM205.625 1.75L218.188 31.375L230.797 1.75H248.516L226.578 45.4844V70H209.844V45.4844L187.859 1.75H205.625ZM287.422 1.75V70H270.969V1.75H287.422ZM307.953 1.75V14.4531H250.906V1.75H307.953Z" fill="#F4BF00"/>
</g>
<defs>
<filter id="filter0_d_2_4" x="0.46875" y="0.8125" width="311.484" height="82.125" filterUnits="userSpaceOnUse" color-interpolation-filters="sRGB">
<feFlood flood-opacity="0" result="BackgroundImageFix"/>
<feColorMatrix in="SourceAlpha" type="matrix" values="0 0 0 0 0 0 0 0 0 0 0 0 0 0 0 0 0 0 127 0" result="hardAlpha"/>
<feOffset dx="-2" dy="6"/>
<feGaussianBlur stdDeviation="3"/>
<feComposite in2="hardAlpha" operator="out"/>
<feColorMatrix type="matrix" values="0 0 0 0 0.389613 0 0 0 0 0.155313 0 0 0 0 0.8875 0 0 0 0.79 0"/>
<feBlend mode="normal" in2="BackgroundImageFix" result="effect1_dropShadow_2_4"/>
<feBlend mode="normal" in="SourceGraphic" in2="effect1_dropShadow_2_4" result="shape"/>
</filter>
</defs>
</svg>
